<svg width="26" height="26" viewBox="0 0 26 26" fill="none" xmlns="http://www.w3.org/2000/svg">
<path d="M13 0C9.55219 -4.11148e-08 6.24559 1.36964 3.80761 3.80761C1.36964 6.24558 3.01418e-07 9.55218 0 13C-3.01417e-07 16.4478 1.36964 19.7544 3.80761 22.1924C6.24558 24.6304 9.55218 26 13 26L13 13L13 0Z" fill="#BD0909"/>
<path d="M24.495 13.495C24.7683 13.2216 24.7683 12.7784 24.495 12.505L20.0402 8.05025C19.7668 7.77689 19.3236 7.77689 19.0503 8.05025C18.7769 8.32362 18.7769 8.76684 19.0503 9.0402L23.0101 13L19.0503 16.9598C18.7769 17.2332 18.7769 17.6764 19.0503 17.9497C19.3236 18.2231 19.7668 18.2231 20.0402 17.9497L24.495 13.495ZM9 13.7H24V12.3H9V13.7Z" fill="#BD0909"/>
<path d="M8 12.3C7.6134 12.3 7.3 12.6134 7.3 13C7.3 13.3866 7.6134 13.7 8 13.7V12.3ZM8 13.7H13V12.3H8V13.7Z" fill="white"/>
</svg>
