<svg width="26" height="26" viewBox="0 0 26 26" fill="none" xmlns="http://www.w3.org/2000/svg">
<g id="logOut">
<path id="Ellipse 16" d="M13 0C9.55219 -4.11148e-08 6.24559 1.36964 3.80761 3.80761C1.36964 6.24558 3.01418e-07 9.55219 0 13C-3.01417e-07 16.4478 1.36964 19.7544 3.80761 22.1924C6.24558 24.6304 9.55218 26 13 26L13 13V0Z" fill="#343434"/>
<path id="Arrow 1" d="M20.8075 13.495C21.0808 13.2216 21.0808 12.7784 20.8075 12.505L16.3527 8.05025C16.0793 7.77689 15.6361 7.77689 15.3628 8.05025C15.0894 8.32362 15.0894 8.76684 15.3628 9.0402L19.3226 13L15.3628 16.9598C15.0894 17.2332 15.0894 17.6764 15.3628 17.9497C15.6361 18.2231 16.0793 18.2231 16.3527 17.9497L20.8075 13.495ZM8.9375 13.7H20.3125V12.3H8.9375V13.7Z" fill="#343434"/>
<path id="Line 6" d="M6.5 12.3C6.1134 12.3 5.8 12.6134 5.8 13C5.8 13.3866 6.1134 13.7 6.5 13.7V12.3ZM6.5 13.7H13V12.3H6.5V13.7Z" fill="white"/>
</g>
</svg>
